<svg xmlns="http://www.w3.org/2000/svg" version="1.1" xmlns:xlink="http://www.w3.org/1999/xlink" xmlns:svgjs="http://svgjs.com/svgjs" width="360" height="800" preserveAspectRatio="none" viewBox="0 0 360 800"><g mask="url(&quot;#SvgjsMask1000&quot;)" fill="none"><rect width="360" height="800" x="0" y="0" fill="rgba(255, 203, 142, 1)"></rect><path d="M0,280.225C59.981,281.57,120.871,297.338,176.242,274.238C236.796,248.976,288.517,203.638,320.674,146.447C354.341,86.571,369.897,16.213,359.501,-51.688C349.152,-119.28,308.421,-176.77,263.318,-228.166C218.439,-279.306,168.194,-332.213,101.501,-345.682C36.48,-358.814,-27.11,-325.816,-87.818,-299.081C-141.934,-275.249,-188.898,-241.773,-230.303,-199.559C-274.054,-154.953,-333.55,-110.509,-334.057,-48.03C-334.567,14.773,-261.662,50.537,-232.786,106.31C-205.949,158.144,-217.996,231.514,-171.236,266.449C-124.413,301.43,-58.432,278.915,0,280.225" fill="#ff8b03"></path><path d="M360 1132.992C422.114 1141.575 478.709 1100.601 532.779 1068.849 588.865 1035.913 660.452 1008.021 678.983 945.675 697.5640000000001 883.16 630.7860000000001 826.908 623.967 762.047 616.721 693.1179999999999 669.331 620.8199999999999 638.315 558.838 606.5840000000001 495.428 533.994 458.379 464.63599999999997 443.643 397.436 429.365 327.675 449.547 265.95799999999997 479.724 210.552 506.815 177.057 559.938 134.84 604.898 90.59300000000002 652.02 21.519999999999982 686.029 12.180999999999983 749.991 2.841000000000008 813.957 49.81200000000001 872.124 88.231 924.113 121.054 968.529 171.617 991.337 215.406 1024.993 264.09000000000003 1062.411 299.176 1124.587 360 1132.992" fill="#ffffff"></path></g><defs><mask id="SvgjsMask1000"><rect width="360" height="800" fill="#ffffff"></rect></mask></defs></svg>