<svg xmlns="http://www.w3.org/2000/svg" version="1.1" xmlns:xlink="http://www.w3.org/1999/xlink" xmlns:svgjs="http://svgjs.com/svgjs" width="360" height="60" preserveAspectRatio="none" viewBox="0 0 360 60"><g mask="url(&quot;#SvgjsMask1021&quot;)" fill="none"><rect width="360" height="60" x="0" y="0" fill="rgba(230, 86, 15, 1)"></rect><path d="M0 0L94.4 0L0 1.17z" fill="rgba(255, 255, 255, .1)"></path><path d="M0 1.17L94.4 0L201.91000000000003 0L0 31.549999999999997z" fill="rgba(255, 255, 255, .075)"></path><path d="M0 31.549999999999997L201.91000000000003 0L249.10000000000002 0L0 42.989999999999995z" fill="rgba(255, 255, 255, .05)"></path><path d="M0 42.989999999999995L249.10000000000002 0L265.17 0L0 51.779999999999994z" fill="rgba(255, 255, 255, .025)"></path><path d="M360 60L330.25 60L360 34.84z" fill="rgba(0, 0, 0, .1)"></path><path d="M360 34.84L330.25 60L251.45 60L360 25.630000000000003z" fill="rgba(0, 0, 0, .075)"></path><path d="M360 25.629999999999995L251.45 60L241.73 60L360 19.929999999999996z" fill="rgba(0, 0, 0, .05)"></path><path d="M360 19.929999999999993L241.73000000000002 60L206.49 60L360 13.159999999999993z" fill="rgba(0, 0, 0, .025)"></path></g><defs><mask id="SvgjsMask1021"><rect width="360" height="60" fill="#ffffff"></rect></mask></defs></svg>