<svg width="360" height="536" viewBox="0 0 360 536" fill="none" xmlns="http://www.w3.org/2000/svg">
<path d="M360 0H0V536H360V0Z" fill="#FFCB8E"/>
<path d="M32 28.8615L28 32.9846L32 28.8615Z" stroke="#E6560F"/>
<path d="M25 92.7692C25 94.1361 25.5268 95.447 26.4645 96.4135C27.4021 97.3801 28.6739 97.9231 30 97.9231C31.3261 97.9231 32.5979 97.3801 33.5355 96.4135C34.4732 95.447 35 94.1361 35 92.7692C35 91.4023 34.4732 90.0914 33.5355 89.1249C32.5979 88.1584 31.3261 87.6154 30 87.6154C28.6739 87.6154 27.4021 88.1584 26.4645 89.1249C25.5268 90.0914 25 91.4023 25 92.7692V92.7692Z" stroke="#E6560F"/>
<path d="M36 148.431L24 160.8L36 148.431Z" stroke="#E6560F"/>
<path d="M36 210.277L24 222.646L36 210.277Z" stroke="#E6560F"/>
<path d="M60 247.385L0 309.231L60 247.385Z" stroke="#E6560F" stroke-width="3"/>
<path d="M25 340.154C25 341.521 25.5268 342.832 26.4645 343.798C27.4021 344.765 28.6739 345.308 30 345.308C31.3261 345.308 32.5979 344.765 33.5355 343.798C34.4732 342.832 35 341.521 35 340.154C35 338.787 34.4732 337.476 33.5355 336.51C32.5979 335.543 31.3261 335 30 335C28.6739 335 27.4021 335.543 26.4645 336.51C25.5268 337.476 25 338.787 25 340.154V340.154Z" stroke="#E6560F"/>
<path d="M32 399.938L28 404.062L32 399.938Z" stroke="#E6560F"/>
<path d="M36 457.662L24 470.031L36 457.662Z" stroke="#E6560F"/>
<path d="M36 519.508L24 531.877L36 519.508Z" stroke="#E6560F"/>
<path d="M85 30.9231C85 32.29 85.5268 33.6009 86.4645 34.5674C87.4021 35.5339 88.6739 36.0769 90 36.0769C91.3261 36.0769 92.5979 35.5339 93.5355 34.5674C94.4732 33.6009 95 32.29 95 30.9231C95 29.5562 94.4732 28.2453 93.5355 27.2788C92.5979 26.3122 91.3261 25.7692 90 25.7692C88.6739 25.7692 87.4021 26.3122 86.4645 27.2788C85.5268 28.2453 85 29.5562 85 30.9231V30.9231Z" stroke="#E6560F"/>
<path d="M120 61.8462L60 123.692L120 61.8462Z" stroke="#E6560F" stroke-width="3"/>
<path d="M96 148.431L84 160.8L96 148.431Z" stroke="#E6560F"/>
<path d="M89 216.462C89 216.735 89.1054 216.997 89.2929 217.19C89.4804 217.384 89.7348 217.492 90 217.492C90.2652 217.492 90.5196 217.384 90.7071 217.19C90.8946 216.997 91 216.735 91 216.462C91 216.188 90.8946 215.926 90.7071 215.733C90.5196 215.539 90.2652 215.431 90 215.431C89.7348 215.431 89.4804 215.539 89.2929 215.733C89.1054 215.926 89 216.188 89 216.462V216.462Z" stroke="#E6560F"/>
<path d="M89 278.308C89 278.581 89.1054 278.843 89.2929 279.037C89.4804 279.23 89.7348 279.338 90 279.338C90.2652 279.338 90.5196 279.23 90.7071 279.037C90.8946 278.843 91 278.581 91 278.308C91 278.034 90.8946 277.772 90.7071 277.579C90.5196 277.386 90.2652 277.277 90 277.277C89.7348 277.277 89.4804 277.386 89.2929 277.579C89.1054 277.772 89 278.034 89 278.308V278.308Z" stroke="#E6560F"/>
<path d="M92 338.092L88 342.215L92 338.092Z" stroke="#E6560F"/>
<path d="M85 402C85 403.367 85.5268 404.678 86.4645 405.644C87.4021 406.611 88.6739 407.154 90 407.154C91.3261 407.154 92.5979 406.611 93.5355 405.644C94.4732 404.678 95 403.367 95 402C95 400.633 94.4732 399.322 93.5355 398.356C92.5979 397.389 91.3261 396.846 90 396.846C88.6739 396.846 87.4021 397.389 86.4645 398.356C85.5268 399.322 85 400.633 85 402V402Z" stroke="#E6560F"/>
<path d="M96 457.662L84 470.031L96 457.662Z" stroke="#E6560F"/>
<path d="M87 525.692C87 526.512 87.3161 527.299 87.8787 527.879C88.4413 528.459 89.2044 528.785 90 528.785C90.7956 528.785 91.5587 528.459 92.1213 527.879C92.6839 527.299 93 526.512 93 525.692C93 524.872 92.6839 524.086 92.1213 523.506C91.5587 522.926 90.7956 522.6 90 522.6C89.2044 522.6 88.4413 522.926 87.8787 523.506C87.3161 524.086 87 524.872 87 525.692V525.692Z" stroke="#E6560F"/>
<path d="M156 24.7385L144 37.1077L156 24.7385Z" stroke="#E6560F"/>
<path d="M149 92.7692C149 93.0426 149.105 93.3048 149.293 93.4981C149.48 93.6914 149.735 93.8 150 93.8C150.265 93.8 150.52 93.6914 150.707 93.4981C150.895 93.3048 151 93.0426 151 92.7692C151 92.4958 150.895 92.2337 150.707 92.0404C150.52 91.8471 150.265 91.7385 150 91.7385C149.735 91.7385 149.48 91.8471 149.293 92.0404C149.105 92.2337 149 92.4958 149 92.7692V92.7692Z" stroke="#E6560F"/>
<path d="M149 154.615C149 154.889 149.105 155.151 149.293 155.344C149.48 155.538 149.735 155.646 150 155.646C150.265 155.646 150.52 155.538 150.707 155.344C150.895 155.151 151 154.889 151 154.615C151 154.342 150.895 154.08 150.707 153.887C150.52 153.693 150.265 153.585 150 153.585C149.735 153.585 149.48 153.693 149.293 153.887C149.105 154.08 149 154.342 149 154.615V154.615Z" stroke="#E6560F"/>
<path d="M145 216.462C145 217.828 145.527 219.139 146.464 220.106C147.402 221.072 148.674 221.615 150 221.615C151.326 221.615 152.598 221.072 153.536 220.106C154.473 219.139 155 217.828 155 216.462C155 215.095 154.473 213.784 153.536 212.817C152.598 211.851 151.326 211.308 150 211.308C148.674 211.308 147.402 211.851 146.464 212.817C145.527 213.784 145 215.095 145 216.462V216.462Z" stroke="#E6560F"/>
<path d="M149 278.308C149 278.581 149.105 278.843 149.293 279.037C149.48 279.23 149.735 279.338 150 279.338C150.265 279.338 150.52 279.23 150.707 279.037C150.895 278.843 151 278.581 151 278.308C151 278.034 150.895 277.772 150.707 277.579C150.52 277.386 150.265 277.277 150 277.277C149.735 277.277 149.48 277.386 149.293 277.579C149.105 277.772 149 278.034 149 278.308V278.308Z" stroke="#E6560F"/>
<path d="M152 338.092L148 342.215L152 338.092Z" stroke="#E6560F"/>
<path d="M152 399.938L148 404.062L152 399.938Z" stroke="#E6560F"/>
<path d="M152 461.785L148 465.908L152 461.785Z" stroke="#E6560F"/>
<path d="M149 525.692C149 525.966 149.105 526.228 149.293 526.421C149.48 526.614 149.735 526.723 150 526.723C150.265 526.723 150.52 526.614 150.707 526.421C150.895 526.228 151 525.966 151 525.692C151 525.419 150.895 525.157 150.707 524.963C150.52 524.77 150.265 524.661 150 524.661C149.735 524.661 149.48 524.77 149.293 524.963C149.105 525.157 149 525.419 149 525.692V525.692Z" stroke="#E6560F"/>
<path d="M207 30.9231C207 31.7432 207.316 32.5297 207.879 33.1097C208.441 33.6896 209.204 34.0154 210 34.0154C210.796 34.0154 211.559 33.6896 212.121 33.1097C212.684 32.5297 213 31.7432 213 30.9231C213 30.1029 212.684 29.3164 212.121 28.7365C211.559 28.1566 210.796 27.8308 210 27.8308C209.204 27.8308 208.441 28.1566 207.879 28.7365C207.316 29.3164 207 30.1029 207 30.9231V30.9231Z" stroke="#E6560F"/>
<path d="M209 92.7692C209 93.0426 209.105 93.3048 209.293 93.4981C209.48 93.6914 209.735 93.8 210 93.8C210.265 93.8 210.52 93.6914 210.707 93.4981C210.895 93.3048 211 93.0426 211 92.7692C211 92.4958 210.895 92.2337 210.707 92.0404C210.52 91.8471 210.265 91.7385 210 91.7385C209.735 91.7385 209.48 91.8471 209.293 92.0404C209.105 92.2337 209 92.4958 209 92.7692V92.7692Z" stroke="#E6560F"/>
<path d="M209 154.615C209 154.889 209.105 155.151 209.293 155.344C209.48 155.538 209.735 155.646 210 155.646C210.265 155.646 210.52 155.538 210.707 155.344C210.895 155.151 211 154.889 211 154.615C211 154.342 210.895 154.08 210.707 153.887C210.52 153.693 210.265 153.585 210 153.585C209.735 153.585 209.48 153.693 209.293 153.887C209.105 154.08 209 154.342 209 154.615V154.615Z" stroke="#E6560F"/>
<path d="M240 185.538L180 247.385L240 185.538Z" stroke="#E6560F" stroke-width="3"/>
<path d="M216 272.123L204 284.492L216 272.123Z" stroke="#E6560F"/>
<path d="M216 333.969L204 346.338L216 333.969Z" stroke="#E6560F"/>
<path d="M207 402C207 402.82 207.316 403.607 207.879 404.187C208.441 404.767 209.204 405.092 210 405.092C210.796 405.092 211.559 404.767 212.121 404.187C212.684 403.607 213 402.82 213 402C213 401.18 212.684 400.393 212.121 399.813C211.559 399.233 210.796 398.908 210 398.908C209.204 398.908 208.441 399.233 207.879 399.813C207.316 400.393 207 401.18 207 402V402Z" stroke="#E6560F"/>
<path d="M216 457.662L204 470.031L216 457.662Z" stroke="#E6560F"/>
<path d="M216 519.508L204 531.877L216 519.508Z" stroke="#E6560F"/>
<path d="M265 30.9231C265 32.29 265.527 33.6009 266.464 34.5674C267.402 35.5339 268.674 36.0769 270 36.0769C271.326 36.0769 272.598 35.5339 273.536 34.5674C274.473 33.6009 275 32.29 275 30.9231C275 29.5562 274.473 28.2453 273.536 27.2788C272.598 26.3122 271.326 25.7692 270 25.7692C268.674 25.7692 267.402 26.3122 266.464 27.2788C265.527 28.2453 265 29.5562 265 30.9231V30.9231Z" stroke="#E6560F"/>
<path d="M272 90.7077L268 94.8308L272 90.7077Z" stroke="#E6560F"/>
<path d="M265 154.615C265 155.982 265.527 157.293 266.464 158.26C267.402 159.226 268.674 159.769 270 159.769C271.326 159.769 272.598 159.226 273.536 158.26C274.473 157.293 275 155.982 275 154.615C275 153.248 274.473 151.938 273.536 150.971C272.598 150.005 271.326 149.462 270 149.462C268.674 149.462 267.402 150.005 266.464 150.971C265.527 151.938 265 153.248 265 154.615V154.615Z" stroke="#E6560F"/>
<path d="M265 216.462C265 217.828 265.527 219.139 266.464 220.106C267.402 221.072 268.674 221.615 270 221.615C271.326 221.615 272.598 221.072 273.536 220.106C274.473 219.139 275 217.828 275 216.462C275 215.095 274.473 213.784 273.536 212.817C272.598 211.851 271.326 211.308 270 211.308C268.674 211.308 267.402 211.851 266.464 212.817C265.527 213.784 265 215.095 265 216.462V216.462Z" stroke="#E6560F"/>
<path d="M272 276.246L268 280.369L272 276.246Z" stroke="#E6560F"/>
<path d="M300 309.231L240 371.077L300 309.231Z" stroke="#E6560F" stroke-width="3"/>
<path d="M269 402C269 402.273 269.105 402.536 269.293 402.729C269.48 402.922 269.735 403.031 270 403.031C270.265 403.031 270.52 402.922 270.707 402.729C270.895 402.536 271 402.273 271 402C271 401.727 270.895 401.464 270.707 401.271C270.52 401.078 270.265 400.969 270 400.969C269.735 400.969 269.48 401.078 269.293 401.271C269.105 401.464 269 401.727 269 402V402Z" stroke="#E6560F"/>
<path d="M272 461.785L268 465.908L272 461.785Z" stroke="#E6560F"/>
<path d="M300 494.769L240 556.615L300 494.769Z" stroke="#E6560F" stroke-width="3"/>
<path d="M327 30.9231C327 31.7432 327.316 32.5297 327.879 33.1097C328.441 33.6896 329.204 34.0154 330 34.0154C330.796 34.0154 331.559 33.6896 332.121 33.1097C332.684 32.5297 333 31.7432 333 30.9231C333 30.1029 332.684 29.3164 332.121 28.7365C331.559 28.1566 330.796 27.8308 330 27.8308C329.204 27.8308 328.441 28.1566 327.879 28.7365C327.316 29.3164 327 30.1029 327 30.9231V30.9231Z" stroke="#E6560F"/>
<path d="M325 92.7692C325 94.1361 325.527 95.447 326.464 96.4135C327.402 97.3801 328.674 97.9231 330 97.9231C331.326 97.9231 332.598 97.3801 333.536 96.4135C334.473 95.447 335 94.1361 335 92.7692C335 91.4023 334.473 90.0914 333.536 89.1249C332.598 88.1584 331.326 87.6154 330 87.6154C328.674 87.6154 327.402 88.1584 326.464 89.1249C325.527 90.0914 325 91.4023 325 92.7692V92.7692Z" stroke="#E6560F"/>
<path d="M329 154.615C329 154.889 329.105 155.151 329.293 155.344C329.48 155.538 329.735 155.646 330 155.646C330.265 155.646 330.52 155.538 330.707 155.344C330.895 155.151 331 154.889 331 154.615C331 154.342 330.895 154.08 330.707 153.887C330.52 153.693 330.265 153.585 330 153.585C329.735 153.585 329.48 153.693 329.293 153.887C329.105 154.08 329 154.342 329 154.615V154.615Z" stroke="#E6560F"/>
<path d="M360 185.538L300 247.385L360 185.538Z" stroke="#E6560F" stroke-width="3"/>
<path d="M332 276.246L328 280.369L332 276.246Z" stroke="#E6560F"/>
<path d="M327 340.154C327 340.974 327.316 341.761 327.879 342.34C328.441 342.92 329.204 343.246 330 343.246C330.796 343.246 331.559 342.92 332.121 342.34C332.684 341.761 333 340.974 333 340.154C333 339.334 332.684 338.547 332.121 337.967C331.559 337.387 330.796 337.062 330 337.062C329.204 337.062 328.441 337.387 327.879 337.967C327.316 338.547 327 339.334 327 340.154V340.154Z" stroke="#E6560F"/>
<path d="M332 399.938L328 404.062L332 399.938Z" stroke="#E6560F"/>
<path d="M336 457.662L324 470.031L336 457.662Z" stroke="#E6560F"/>
<path d="M332 523.631L328 527.754L332 523.631Z" stroke="#E6560F"/>
</svg>
