<svg width="25" height="25" viewBox="0 0 25 25" fill="none" xmlns="http://www.w3.org/2000/svg">
<path d="M23.221 13.4306C22.947 13.433 22.683 13.3281 22.4853 13.1386L22.0345 12.6878L21.181 11.8343V13.0414V23.2497C21.181 23.5281 21.0703 23.7952 20.8734 23.9921C20.6765 24.189 20.4094 24.2997 20.131 24.2997H17.031C16.7525 24.2997 16.4854 24.189 16.2885 23.9921C16.0916 23.7952 15.981 23.5281 15.981 23.2497V20.1497C15.981 19.606 15.765 19.0845 15.3805 18.7001C14.9961 18.3157 14.4746 18.0997 13.931 18.0997H10.831C10.2873 18.0997 9.76583 18.3157 9.38138 18.7001C8.99694 19.0845 8.78095 19.606 8.78095 20.1497V23.2497C8.78095 23.5281 8.67033 23.7952 8.47342 23.9921C8.2765 24.189 8.00943 24.2997 7.73095 24.2997H4.63095C4.35248 24.2997 4.0854 24.189 3.88849 23.9921C3.69158 23.7952 3.58095 23.5281 3.58095 23.2497V13.0414V11.8343L2.7274 12.6878L2.27663 13.1386C2.0789 13.3281 1.81488 13.433 1.54088 13.4306C1.26557 13.4282 1.00222 13.3178 0.807538 13.1231C0.61286 12.9284 0.502432 12.6651 0.50004 12.3897C0.497659 12.1158 0.602474 11.8517 0.792016 11.654L11.6386 0.807426C11.6386 0.807408 11.6386 0.80739 11.6387 0.807372C11.8356 0.610561 12.1026 0.5 12.381 0.5C12.6594 0.5 12.9264 0.610561 13.1233 0.807372C13.1233 0.80739 13.1233 0.807408 13.1233 0.807426L23.9699 11.654C24.1594 11.8517 24.2642 12.1157 24.2619 12.3897C24.2595 12.6651 24.149 12.9284 23.9544 13.1231C23.7597 13.3178 23.4963 13.4282 23.221 13.4306Z" stroke="white"/>
</svg>
